<svg width="197" height="141" viewBox="0 0 197 141" fill="none" xmlns="http://www.w3.org/2000/svg">
<path d="M45.552 79.216C43.84 79.216 42.376 78.864 41.16 78.16C39.944 77.456 39.008 76.456 38.352 75.16C37.712 73.848 37.392 72.304 37.392 70.528C37.392 68.752 37.712 67.216 38.352 65.92C39.008 64.624 39.944 63.624 41.16 62.92C42.376 62.216 43.84 61.864 45.552 61.864C46.704 61.864 47.776 62.048 48.768 62.416C49.776 62.768 50.616 63.28 51.288 63.952L50.424 65.944C49.688 65.288 48.928 64.816 48.144 64.528C47.376 64.224 46.536 64.072 45.624 64.072C43.8 64.072 42.408 64.632 41.448 65.752C40.488 66.872 40.008 68.464 40.008 70.528C40.008 72.592 40.488 74.192 41.448 75.328C42.408 76.448 43.8 77.008 45.624 77.008C46.536 77.008 47.376 76.864 48.144 76.576C48.928 76.272 49.688 75.792 50.424 75.136L51.288 77.128C50.616 77.784 49.776 78.296 48.768 78.664C47.776 79.032 46.704 79.216 45.552 79.216ZM58.167 79.216C56.983 79.216 55.959 78.968 55.095 78.472C54.231 77.976 53.559 77.28 53.079 76.384C52.615 75.472 52.383 74.392 52.383 73.144C52.383 71.896 52.615 70.824 53.079 69.928C53.559 69.016 54.231 68.312 55.095 67.816C55.959 67.32 56.983 67.072 58.167 67.072C59.319 67.072 60.327 67.32 61.191 67.816C62.055 68.312 62.727 69.016 63.207 69.928C63.687 70.824 63.927 71.896 63.927 73.144C63.927 74.392 63.687 75.472 63.207 76.384C62.727 77.28 62.055 77.976 61.191 78.472C60.327 78.968 59.319 79.216 58.167 79.216ZM58.167 77.344C59.159 77.344 59.959 76.984 60.567 76.264C61.175 75.544 61.479 74.504 61.479 73.144C61.479 71.784 61.175 70.752 60.567 70.048C59.959 69.328 59.159 68.968 58.167 68.968C57.159 68.968 56.351 69.328 55.743 70.048C55.135 70.752 54.831 71.784 54.831 73.144C54.831 74.504 55.135 75.544 55.743 76.264C56.351 76.984 57.159 77.344 58.167 77.344ZM66.6493 79V67.288H69.0013V69.232C69.4013 68.528 69.9453 67.992 70.6333 67.624C71.3373 67.256 72.1213 67.072 72.9853 67.072C75.7533 67.072 77.1373 68.64 77.1373 71.776V79H74.7133V71.92C74.7133 70.912 74.5133 70.176 74.1133 69.712C73.7293 69.248 73.1213 69.016 72.2893 69.016C71.3133 69.016 70.5293 69.328 69.9373 69.952C69.3613 70.56 69.0733 71.368 69.0733 72.376V79H66.6493ZM85.4694 79.216C83.9974 79.216 82.9014 78.84 82.1814 78.088C81.4614 77.336 81.1014 76.248 81.1014 74.824V69.16H78.8214V67.288H81.1014V63.76H83.5254V67.288H87.1494V69.16H83.5254V74.632C83.5254 75.48 83.7014 76.12 84.0534 76.552C84.4214 76.984 85.0134 77.2 85.8294 77.2C86.0854 77.2 86.3334 77.176 86.5734 77.128C86.8134 77.064 87.0534 76.992 87.2934 76.912L87.6774 78.736C87.4374 78.88 87.1014 78.992 86.6694 79.072C86.2534 79.168 85.8534 79.216 85.4694 79.216ZM92.9871 79.216C92.1711 79.216 91.4431 79.056 90.8031 78.736C90.1631 78.416 89.6511 77.984 89.2671 77.44C88.8991 76.896 88.7151 76.28 88.7151 75.592C88.7151 74.728 88.9311 74.048 89.3631 73.552C89.8111 73.056 90.5391 72.696 91.5471 72.472C92.5711 72.248 93.9471 72.136 95.6751 72.136H96.4911V71.512C96.4911 70.6 96.2991 69.944 95.9151 69.544C95.5311 69.144 94.8991 68.944 94.0191 68.944C93.3471 68.944 92.6751 69.048 92.0031 69.256C91.3311 69.448 90.6431 69.76 89.9391 70.192L89.1951 68.488C89.8031 68.056 90.5631 67.712 91.4751 67.456C92.3871 67.2 93.2591 67.072 94.0911 67.072C95.6911 67.072 96.8751 67.456 97.6431 68.224C98.4111 68.976 98.7951 70.16 98.7951 71.776V79H96.5151V77.056C96.2271 77.728 95.7791 78.256 95.1711 78.64C94.5631 79.024 93.8351 79.216 92.9871 79.216ZM93.4671 77.488C94.3311 77.488 95.0511 77.184 95.6271 76.576C96.2031 75.968 96.4911 75.2 96.4911 74.272V73.624H95.6991C94.5311 73.624 93.6111 73.68 92.9391 73.792C92.2831 73.904 91.8111 74.096 91.5231 74.368C91.2511 74.624 91.1151 74.984 91.1151 75.448C91.1151 76.056 91.3231 76.552 91.7391 76.936C92.1551 77.304 92.7311 77.488 93.4671 77.488ZM107.294 79.216C106.094 79.216 105.054 78.968 104.174 78.472C103.31 77.96 102.638 77.248 102.158 76.336C101.678 75.408 101.438 74.32 101.438 73.072C101.438 71.216 101.966 69.752 103.022 68.68C104.078 67.608 105.502 67.072 107.294 67.072C108.03 67.072 108.758 67.2 109.478 67.456C110.198 67.712 110.79 68.064 111.254 68.512L110.486 70.216C110.038 69.8 109.542 69.496 108.998 69.304C108.47 69.096 107.966 68.992 107.486 68.992C106.35 68.992 105.47 69.352 104.846 70.072C104.238 70.776 103.934 71.784 103.934 73.096C103.934 74.408 104.238 75.44 104.846 76.192C105.47 76.928 106.35 77.296 107.486 77.296C107.966 77.296 108.47 77.2 108.998 77.008C109.542 76.8 110.038 76.488 110.486 76.072L111.254 77.8C110.79 78.232 110.19 78.576 109.454 78.832C108.734 79.088 108.014 79.216 107.294 79.216ZM118.352 79.216C116.88 79.216 115.784 78.84 115.064 78.088C114.344 77.336 113.984 76.248 113.984 74.824V69.16H111.704V67.288H113.984V63.76H116.408V67.288H120.032V69.16H116.408V74.632C116.408 75.48 116.584 76.12 116.936 76.552C117.304 76.984 117.896 77.2 118.712 77.2C118.968 77.2 119.216 77.176 119.456 77.128C119.696 77.064 119.936 76.992 120.176 76.912L120.56 78.736C120.32 78.88 119.984 78.992 119.552 79.072C119.136 79.168 118.736 79.216 118.352 79.216ZM128.479 79V67.288H130.831V69.184C131.183 68.512 131.671 67.992 132.295 67.624C132.919 67.256 133.647 67.072 134.479 67.072C136.271 67.072 137.431 67.856 137.959 69.424C138.327 68.688 138.855 68.112 139.543 67.696C140.231 67.28 141.015 67.072 141.895 67.072C144.519 67.072 145.831 68.64 145.831 71.776V79H143.407V71.896C143.407 70.904 143.231 70.176 142.879 69.712C142.543 69.248 141.983 69.016 141.199 69.016C140.319 69.016 139.623 69.328 139.111 69.952C138.599 70.56 138.343 71.392 138.343 72.448V79H135.919V71.896C135.919 70.904 135.751 70.176 135.415 69.712C135.079 69.248 134.519 69.016 133.735 69.016C132.855 69.016 132.159 69.328 131.647 69.952C131.151 70.56 130.903 71.392 130.903 72.448V79H128.479ZM154.716 79.216C152.796 79.216 151.284 78.68 150.18 77.608C149.076 76.52 148.524 75.04 148.524 73.168C148.524 71.968 148.764 70.912 149.244 70C149.74 69.072 150.42 68.352 151.284 67.84C152.148 67.328 153.14 67.072 154.26 67.072C155.876 67.072 157.148 67.592 158.076 68.632C159.004 69.656 159.468 71.072 159.468 72.88V73.696H150.876C151.052 76.128 152.34 77.344 154.74 77.344C155.412 77.344 156.068 77.24 156.708 77.032C157.364 76.824 157.98 76.48 158.556 76L159.276 77.68C158.748 78.16 158.068 78.536 157.236 78.808C156.404 79.08 155.564 79.216 154.716 79.216ZM154.356 68.776C153.348 68.776 152.548 69.088 151.956 69.712C151.364 70.336 151.004 71.168 150.876 72.208H157.428C157.38 71.12 157.092 70.28 156.564 69.688C156.036 69.08 155.3 68.776 154.356 68.776Z" fill="white"/>
<path d="M141.874 31.7348C130.077 29.8335 116.632 28.4215 109.986 28.3386C86.7435 28.0807 58.6937 32.614 41.6969 39.3969C30.8998 43.6786 20.4929 50.1461 14.6307 56.243C8.02991 63.073 5.13939 70.6234 6.46689 77.6062C7.70578 83.908 12.5211 90.6204 19.3783 95.5796C25.8488 100.161 31.7089 102.772 43.1591 106.169C70.9385 114.379 100.271 115.174 131.87 108.524C152.723 104.144 172.625 95.62 180.837 87.6333C187.975 80.6186 190.694 72.091 188.463 63.8257C186.436 56.2172 177.611 48.4853 164.502 42.7819C149.075 36.0192 128.927 34.1259 104.124 37.0645C89.397 38.8145 83.471 40.2937 82.9233 42.3377C82.6769 43.2575 83.463 43.3586 87.0698 42.8463C92.5006 42.0012 110.077 40.1383 116.262 39.7145C133.187 38.663 148.738 40.3106 159.261 44.3351C178.099 51.5188 187.316 62.0394 184.45 72.9373C181.94 82.5066 171.334 90.7281 153.532 97.0762C126.875 106.528 95.1316 109.47 65.2683 105.192C56.851 104.032 41.0098 99.6231 34.4826 96.6693C7.69322 84.5618 5.35622 68.6003 27.9747 52.3699C42.6023 41.8851 72.4092 33.222 98.2359 31.9269C120.653 30.8135 151.272 34.0888 159.816 38.6234C161.527 39.5201 163.326 40.4951 163.827 40.8485C164.591 41.4367 164.619 41.3344 163.803 40.13C161.618 36.7514 153.354 33.6058 141.874 31.7348Z" fill="#BD1B7F"/>
</svg>
