<svg width="40" height="40" viewBox="0 0 40 40" fill="none" xmlns="http://www.w3.org/2000/svg">
<circle cx="20" cy="20" r="20" fill="#BD1B7F"/>
<path d="M25.7214 13.7071C25.4671 13.7071 25.2185 13.7825 25.0071 13.9238C24.7956 14.0651 24.6308 14.2659 24.5335 14.5008C24.4362 14.7358 24.4107 14.9943 24.4603 15.2437C24.51 15.4931 24.6324 15.7222 24.8122 15.902C24.992 16.0818 25.2211 16.2043 25.4705 16.2539C25.7199 16.3035 25.9784 16.278 26.2134 16.1807C26.4483 16.0834 26.6491 15.9186 26.7904 15.7072C26.9317 15.4957 27.0071 15.2471 27.0071 14.9929C27.0071 14.6519 26.8716 14.3248 26.6305 14.0837C26.3894 13.8426 26.0624 13.7071 25.7214 13.7071ZM30.6499 16.3C30.6291 15.411 30.4626 14.5315 30.1571 13.6964C29.8846 12.9819 29.4606 12.3349 28.9142 11.8C28.3837 11.2508 27.7352 10.8295 27.0178 10.5679C26.1849 10.253 25.3044 10.0827 24.4142 10.0643C23.2785 10 22.9142 10 19.9999 10C17.0856 10 16.7214 10 15.5856 10.0643C14.6955 10.0827 13.8149 10.253 12.9821 10.5679C12.266 10.8321 11.6181 11.2531 11.0856 11.8C10.5365 12.3305 10.1151 12.979 9.8535 13.6964C9.53867 14.5293 9.36837 15.4098 9.34993 16.3C9.28564 17.4357 9.28564 17.8 9.28564 20.7143C9.28564 23.6286 9.28564 23.9929 9.34993 25.1286C9.36837 26.0188 9.53867 26.8993 9.8535 27.7321C10.1151 28.4495 10.5365 29.098 11.0856 29.6286C11.6181 30.1755 12.266 30.5964 12.9821 30.8607C13.8149 31.1755 14.6955 31.3458 15.5856 31.3643C16.7214 31.4286 17.0856 31.4286 19.9999 31.4286C22.9142 31.4286 23.2785 31.4286 24.4142 31.3643C25.3044 31.3458 26.1849 31.1755 27.0178 30.8607C27.7352 30.5991 28.3837 30.1778 28.9142 29.6286C29.463 29.0956 29.8874 28.4481 30.1571 27.7321C30.4626 26.8971 30.6291 26.0175 30.6499 25.1286C30.6499 23.9929 30.7142 23.6286 30.7142 20.7143C30.7142 17.8 30.7142 17.4357 30.6499 16.3ZM28.7214 25C28.7136 25.6801 28.5904 26.354 28.3571 26.9929C28.186 27.4591 27.9112 27.8805 27.5535 28.225C27.206 28.5791 26.7855 28.8533 26.3214 29.0286C25.6825 29.2619 25.0086 29.3851 24.3285 29.3929C23.2571 29.4464 22.8606 29.4571 20.0428 29.4571C17.2249 29.4571 16.8285 29.4571 15.7571 29.3929C15.0509 29.4061 14.3477 29.2973 13.6785 29.0714C13.2347 28.8872 12.8335 28.6137 12.4999 28.2679C12.1443 27.9237 11.873 27.502 11.7071 27.0357C11.4455 26.3877 11.3004 25.6985 11.2785 25C11.2785 23.9286 11.2142 23.5321 11.2142 20.7143C11.2142 17.8964 11.2142 17.5 11.2785 16.4286C11.2833 15.7333 11.4102 15.0442 11.6535 14.3929C11.8421 13.9406 12.1316 13.5375 12.4999 13.2143C12.8254 12.8459 13.2277 12.5533 13.6785 12.3571C14.3316 12.1215 15.0199 11.9983 15.7142 11.9929C16.7856 11.9929 17.1821 11.9286 19.9999 11.9286C22.8178 11.9286 23.2142 11.9286 24.2856 11.9929C24.9658 12.0007 25.6396 12.1238 26.2785 12.3571C26.7654 12.5378 27.2024 12.8316 27.5535 13.2143C27.9046 13.5434 28.179 13.9458 28.3571 14.3929C28.5952 15.0453 28.7185 15.734 28.7214 16.4286C28.7749 17.5 28.7856 17.8964 28.7856 20.7143C28.7856 23.5321 28.7749 23.9286 28.7214 25ZM19.9999 15.2179C18.9133 15.22 17.8517 15.5441 16.9492 16.1494C16.0467 16.7546 15.3439 17.6138 14.9295 18.6183C14.5152 19.6228 14.4078 20.7276 14.6211 21.7931C14.8344 22.8586 15.3588 23.837 16.1279 24.6046C16.897 25.3722 17.8764 25.8947 18.9423 26.1059C20.0082 26.3171 21.1128 26.2076 22.1165 25.7913C23.1202 25.375 23.978 24.6705 24.5815 23.7668C25.185 22.8632 25.5071 21.8009 25.5071 20.7143C25.5085 19.9912 25.3669 19.2749 25.0905 18.6067C24.8142 17.9385 24.4084 17.3316 23.8966 16.8208C23.3848 16.31 22.777 15.9054 22.1083 15.6303C21.4396 15.3552 20.723 15.215 19.9999 15.2179ZM19.9999 24.2821C19.2943 24.2821 18.6045 24.0729 18.0177 23.6809C17.431 23.2888 16.9737 22.7316 16.7037 22.0796C16.4336 21.4277 16.363 20.7103 16.5006 20.0182C16.6383 19.3261 16.9781 18.6904 17.4771 18.1914C17.976 17.6925 18.6118 17.3527 19.3039 17.215C19.996 17.0773 20.7133 17.148 21.3653 17.418C22.0172 17.6881 22.5745 18.1454 22.9665 18.7321C23.3585 19.3188 23.5678 20.0086 23.5678 20.7143C23.5678 21.1828 23.4755 21.6468 23.2962 22.0796C23.1169 22.5125 22.8541 22.9058 22.5228 23.2371C22.1915 23.5684 21.7982 23.8313 21.3653 24.0106C20.9324 24.1899 20.4685 24.2821 19.9999 24.2821Z" fill="white"/>
</svg>
