<svg width="40" height="40" viewBox="0 0 40 40" fill="none" xmlns="http://www.w3.org/2000/svg">
<path d="M20 0C8.95375 0 0 8.95375 0 20C0 31.045 8.95375 40 20 40C31.0462 40 40 31.045 40 20C40 8.95375 31.0462 0 20 0Z" fill="#BD1B7F"/>
<path d="M30.3674 28.6774V21.0062C30.3674 16.8962 28.1736 14.9837 25.2474 14.9837C22.8861 14.9837 21.8286 16.2824 21.2399 17.1937V15.2974H16.7924C16.8511 16.5537 16.7924 28.6774 16.7924 28.6774H21.2399V21.2049C21.2399 20.8062 21.2686 20.4062 21.3861 20.1212C21.7074 19.3224 22.4386 18.4949 23.6674 18.4949C25.2774 18.4949 25.9211 19.7212 25.9211 21.5199V28.6787L30.3674 28.6774ZM12.1061 13.4712C13.6561 13.4712 14.6224 12.4424 14.6224 11.1587C14.5936 9.84616 13.6561 8.84741 12.1349 8.84741C10.6136 8.84741 9.61987 9.84616 9.61987 11.1587C9.61987 12.4437 10.5849 13.4712 12.0786 13.4712H12.1061ZM14.3299 28.6774V15.2974H9.88362V28.6774H14.3299Z" fill="white"/>
</svg>
