<svg width="40" height="40" viewBox="0 0 40 40" fill="none" xmlns="http://www.w3.org/2000/svg">
<circle cx="20" cy="20" r="20" fill="#BD1B7F"/>
<path d="M29.68 18.4721V14.7317C27.9283 14.7317 26.5915 14.2641 25.7288 13.3554C24.8434 12.3182 24.3474 11.0048 24.3262 9.64125V9.37125L20.7899 9.28564V24.4779C20.6686 25.1408 20.3468 25.7505 19.868 26.2246C19.3892 26.6988 18.7765 27.0147 18.1125 27.1296C17.4485 27.2445 16.7653 27.153 16.155 26.8672C15.5447 26.5815 15.0367 26.1155 14.6997 25.5319C14.3627 24.9484 14.2129 24.2755 14.2704 23.6041C14.3279 22.9327 14.59 22.2951 15.0214 21.7774C15.4528 21.2597 16.0326 20.8869 16.6826 20.7091C17.3326 20.5314 18.0215 20.5574 18.6562 20.7836V17.1617C18.2861 17.101 17.9118 17.0702 17.5367 17.0695C16.1874 17.0695 14.8684 17.4696 13.7464 18.2192C12.6245 18.9689 11.75 20.0344 11.2337 21.281C10.7173 22.5277 10.5822 23.8994 10.8454 25.2228C11.1087 26.5462 11.7585 27.7619 12.7126 28.716C13.6667 29.6701 14.8823 30.3199 16.2058 30.5831C17.5292 30.8464 18.9009 30.7113 20.1475 30.1949C21.3942 29.6785 22.4597 28.8041 23.2093 27.6821C23.959 26.5602 24.3591 25.2412 24.3591 23.8918C24.3584 23.6123 24.3408 23.333 24.3064 23.0555V17.03C25.9144 18.0342 27.7853 18.5363 29.68 18.4721Z" fill="white"/>
</svg>
