<svg width="42" height="22" viewBox="0 0 42 22" fill="none" xmlns="http://www.w3.org/2000/svg">
<path d="M0.848 17V0.079999H7.136C9.024 0.079999 10.624 0.407999 11.936 1.064C13.264 1.72 14.272 2.68 14.96 3.944C15.664 5.192 16.016 6.72 16.016 8.528C16.016 10.336 15.664 11.872 14.96 13.136C14.272 14.4 13.264 15.36 11.936 16.016C10.624 16.672 9.024 17 7.136 17H0.848ZM3.92 14.456H6.944C8.912 14.456 10.376 13.968 11.336 12.992C12.312 12 12.8 10.512 12.8 8.528C12.8 6.544 12.312 5.064 11.336 4.088C10.36 3.112 8.896 2.624 6.944 2.624H3.92V14.456ZM24.2653 17.24C23.0333 17.24 21.9613 16.992 21.0493 16.496C20.1373 15.984 19.4333 15.264 18.9373 14.336C18.4413 13.408 18.1933 12.32 18.1933 11.072C18.1933 9.824 18.4413 8.752 18.9373 7.856C19.4333 6.944 20.1373 6.248 21.0493 5.768C21.9613 5.272 23.0333 5.024 24.2653 5.024C25.0173 5.024 25.7613 5.144 26.4973 5.384C27.2333 5.624 27.8413 5.96 28.3213 6.392L27.4333 8.48C27.0173 8.112 26.5453 7.832 26.0173 7.64C25.5053 7.448 25.0093 7.352 24.5293 7.352C23.4893 7.352 22.6813 7.68 22.1053 8.336C21.5453 8.976 21.2653 9.896 21.2653 11.096C21.2653 12.28 21.5453 13.216 22.1053 13.904C22.6813 14.576 23.4893 14.912 24.5293 14.912C24.9933 14.912 25.4893 14.816 26.0173 14.624C26.5453 14.432 27.0173 14.144 27.4333 13.76L28.3213 15.872C27.8413 16.288 27.2253 16.624 26.4733 16.88C25.7373 17.12 25.0013 17.24 24.2653 17.24ZM35.3992 21.56C34.3112 21.56 33.2872 21.432 32.3272 21.176C31.3832 20.936 30.5512 20.56 29.8312 20.048L30.6952 17.96C31.1432 18.248 31.6152 18.488 32.1112 18.68C32.6072 18.888 33.1112 19.04 33.6232 19.136C34.1352 19.232 34.6472 19.28 35.1592 19.28C36.2312 19.28 37.0312 19.016 37.5592 18.488C38.1032 17.976 38.3752 17.208 38.3752 16.184V14.024H38.5912C38.3512 14.84 37.8472 15.496 37.0792 15.992C36.3272 16.472 35.4712 16.712 34.5112 16.712C33.4552 16.712 32.5352 16.472 31.7512 15.992C30.9672 15.496 30.3592 14.808 29.9272 13.928C29.4952 13.048 29.2792 12.024 29.2792 10.856C29.2792 9.688 29.4952 8.672 29.9272 7.808C30.3592 6.928 30.9672 6.248 31.7512 5.768C32.5352 5.272 33.4552 5.024 34.5112 5.024C35.5032 5.024 36.3672 5.272 37.1032 5.768C37.8552 6.248 38.3432 6.888 38.5672 7.688H38.3752V5.264H41.3032V15.824C41.3032 17.088 41.0792 18.144 40.6312 18.992C40.1832 19.856 39.5192 20.496 38.6392 20.912C37.7592 21.344 36.6792 21.56 35.3992 21.56ZM35.3272 14.432C36.2552 14.432 36.9912 14.112 37.5352 13.472C38.0792 12.832 38.3512 11.96 38.3512 10.856C38.3512 9.752 38.0792 8.888 37.5352 8.264C36.9912 7.624 36.2552 7.304 35.3272 7.304C34.3992 7.304 33.6632 7.624 33.1192 8.264C32.5752 8.888 32.3032 9.752 32.3032 10.856C32.3032 11.96 32.5752 12.832 33.1192 13.472C33.6632 14.112 34.3992 14.432 35.3272 14.432Z" fill="white"/>
</svg>
