<svg width="370" height="483" fill="none" xmlns="http://www.w3.org/2000/svg"><g opacity=".5" filter="url(#a)"><path d="M346 300.034C277.156 394.174 355.086 412 306.026 412 256.966 412 175 350.57 175 313.96c0-36.61 4.239-67.96 53.299-67.96S346 263.423 346 300.034Z" fill="url(#b)"/></g><g opacity=".5" filter="url(#c)"><circle cx="42.552" cy="287.552" r="84.55" transform="rotate(75 42.552 287.552)" fill="url(#d)" fill-opacity=".75"/></g><g opacity=".5" filter="url(#e)"><circle cx="150.552" cy="166.552" r="84.55" transform="rotate(75 150.552 166.552)" fill="url(#f)" fill-opacity=".75"/></g><defs><linearGradient id="b" x1="260.5" y1="246" x2="260.5" y2="412" gradientUnits="userSpaceOnUse"><stop stop-color="#D9D9D9"/><stop offset="0" stop-color="#87108E"/><stop offset=".279" stop-color="#6844A3"/><stop offset=".487" stop-color="#506BB2"/><stop offset=".628" stop-color="#4085BC"/><stop offset="1" stop-color="#16CBD8"/></linearGradient><linearGradient id="d" x1="-41.998" y1="287.552" x2="127.101" y2="287.552" gradientUnits="userSpaceOnUse"><stop stop-color="#8E0404"/><stop offset="1" stop-color="#910E8C"/></linearGradient><linearGradient id="f" x1="66.002" y1="166.552" x2="235.101" y2="166.552" gradientUnits="userSpaceOnUse"><stop stop-color="#8E0404"/><stop offset="1" stop-color="#910E8C"/></linearGradient><filter id="a" x="151" y="222" width="219" height="214" filterUnits="userSpaceOnUse" color-interpolation-filters="sRGB"><feFlood flood-opacity="0" result="BackgroundImageFix"/><feBlend in="SourceGraphic" in2="BackgroundImageFix" result="shape"/><feGaussianBlur stdDeviation="12" result="effect1_foregroundBlur_230_2"/></filter><filter id="c" x="-152.219" y="92.781" width="389.541" height="389.541" filterUnits="userSpaceOnUse" color-interpolation-filters="sRGB"><feFlood flood-opacity="0" result="BackgroundImageFix"/><feBlend in="SourceGraphic" in2="BackgroundImageFix" result="shape"/><feGaussianBlur stdDeviation="55.1" result="effect1_foregroundBlur_230_2"/></filter><filter id="e" x="-44.219" y="-28.219" width="389.541" height="389.541" filterUnits="userSpaceOnUse" color-interpolation-filters="sRGB"><feFlood flood-opacity="0" result="BackgroundImageFix"/><feBlend in="SourceGraphic" in2="BackgroundImageFix" result="shape"/><feGaussianBlur stdDeviation="55.1" result="effect1_foregroundBlur_230_2"/></filter></defs></svg>