<svg width="315" height="96" fill="none" xmlns="http://www.w3.org/2000/svg"><path d="M11.8 2.108C8.9 4.415 2 17.63 2 20.777c0 1.153.7 2.622 1.6 3.46 1.3 1.05 1.7 1.05 2.5-.209.5-.839.9-1.993.9-2.622 0-.734 2-4.195 4.6-7.761C15.8 7.667 18 3.262 18 .955c0-1.679-3.6-1.05-6.2 1.153ZM302.718 33.37c-8.153 4.283-11.436 7.688-10.588 10.654 1.588 5.163 5.929 3.734 16.411-5.273 3.6-3.075 6.459-6.26 6.459-7.14 0-2.745-5.612-1.867-12.282 1.758ZM0 47.743c0 5.853 3.868 12.96 8.144 15.155 4.377 2.3 4.988 1.045 2.036-4.18-1.324-2.091-3.054-6.272-4.072-9.094-1.222-3.867-2.342-5.33-3.868-5.54C.305 43.772 0 44.19 0 47.744ZM264.067 54.078c-6.496 2.585-8.067 3.985-8.067 7.107 0 3.662 2.724 3.77 11 .216 6.705-2.8 11-5.923 11-7.969 0-2.153-7.752-1.83-13.933.646ZM222.385 72.87c-6.688 1.256-8.746 2.609-8.335 5.604.309 2.223.721 2.61 3.396 2.513 4.219-.194 19.345-6.764 18.522-8.117-.721-1.16-7.306-1.16-13.583 0ZM35.782 78.49c-1.415 1.196-.809 3.674 1.01 4.529 2.628 1.196 17.486 3.418 19.103 2.905 2.425-.769.91-2.307-5.054-4.87-5.76-2.479-13.644-3.846-15.06-2.564ZM177.658 83.644c-6.915.985-9.987 3.053-8.122 5.712 1.866 2.659 12.951 1.97 20.743-1.182 3.621-1.477 5.926-3.052 5.707-3.742-.549-1.575-9.878-1.87-18.328-.788ZM77.361 87.096c-2.06 2.173-1.734 5.377.65 6.75 2.385 1.258 19.511 1.601 24.931.457 1.951-.457 3.251-1.373 3.034-2.06-1.192-3.889-25.796-8.35-28.615-5.147ZM130.004 88.348c-3.712 1.19-5.155 4.11-2.99 6.273 1.547 1.622 2.681 1.73 9.59.757 8.353-1.298 14.437-4.218 11.755-5.732-2.165-1.298-15.467-2.163-18.355-1.298Z" fill="#BD1B7F"/></svg>