<svg width="315" height="96" viewBox="0 0 315 96" fill="none" xmlns="http://www.w3.org/2000/svg">
<path d="M11.8 2.1078C8.9 4.4152 2 17.6303 2 20.7767C2 21.9304 2.7 23.3988 3.6 24.2378C4.9 25.2866 5.3 25.2866 6.1 24.0281C6.6 23.189 7 22.0353 7 21.406C7 20.6718 9 17.2108 11.6 13.6448C15.8 7.66653 18 3.2615 18 0.954105C18 -0.723999 14.4 -0.0947094 11.8 2.1078Z" fill="#BD1B7F"/>
<path d="M302.718 33.3691C294.565 37.653 291.282 41.0581 292.13 44.0239C293.718 49.1865 298.059 47.7585 308.541 38.7514C312.141 35.6758 315 32.4904 315 31.6117C315 28.8656 309.388 29.7443 302.718 33.3691Z" fill="#BD1B7F"/>
<path d="M0 47.7428C0 53.5958 3.86829 60.703 8.14376 62.8979C12.521 65.1973 13.1318 63.9431 10.1797 58.7172C8.85634 56.6268 7.12579 52.4461 6.10782 49.6241C4.88626 45.757 3.76649 44.2937 2.23953 44.0847C0.305391 43.7711 0 44.1892 0 47.7428Z" fill="#BD1B7F"/>
<path d="M264.067 54.0784C257.571 56.6628 256 58.0626 256 61.1854C256 64.8466 258.724 64.9543 267 61.4008C273.705 58.6011 278 55.4783 278 53.4323C278 51.2787 270.248 51.6017 264.067 54.0784Z" fill="#BD1B7F"/>
<path d="M222.385 72.8697C215.697 74.1259 213.639 75.4787 214.05 78.4742C214.359 80.6967 214.771 81.0833 217.446 80.9866C221.665 80.7934 236.791 74.2225 235.968 72.8697C235.247 71.7101 228.662 71.7101 222.385 72.8697Z" fill="#BD1B7F"/>
<path d="M35.7818 78.4897C34.3668 79.6861 34.9732 82.1643 36.7925 83.0189C39.4203 84.2153 54.2776 86.4372 55.8948 85.9245C58.3204 85.1553 56.8044 83.6171 50.8412 81.0534C45.0802 78.5751 37.1968 77.2078 35.7818 78.4897Z" fill="#BD1B7F"/>
<path d="M177.658 83.6444C170.743 84.6292 167.671 86.6972 169.536 89.356C171.402 92.0149 182.487 91.3256 190.279 88.1743C193.9 86.6972 196.205 85.1216 195.986 84.4322C195.437 82.8566 186.108 82.5612 177.658 83.6444Z" fill="#BD1B7F"/>
<path d="M77.3614 87.0957C75.3019 89.2694 75.6271 92.4727 78.0117 93.8456C80.3963 95.104 97.522 95.4472 102.942 94.3032C104.893 93.8456 106.193 92.9303 105.976 92.2439C104.784 88.3542 80.1795 83.8924 77.3614 87.0957Z" fill="#BD1B7F"/>
<path d="M130.004 88.3483C126.292 89.5379 124.849 92.4579 127.014 94.6209C128.561 96.2431 129.695 96.3512 136.604 95.3779C144.957 94.0801 151.041 91.1601 148.359 89.646C146.194 88.3483 132.892 87.4831 130.004 88.3483Z" fill="#BD1B7F"/>
</svg>
