<?xml version="1.0" encoding="UTF-8"?> <svg xmlns="http://www.w3.org/2000/svg" width="1663" height="469" viewBox="0 0 1663 469" fill="none"> <path d="M437.982 234.5C437.982 333.073 358.073 412.982 259.5 412.982C160.927 412.982 81.0181 333.073 81.0181 234.5C81.0181 135.927 160.927 56.0181 259.5 56.0181C358.073 56.0181 437.982 135.927 437.982 234.5Z" fill="url(#paint0_linear_1:1258)" stroke="url(#paint1_linear_1:1258)" stroke-width="16.0361"></path> <path d="M153.424 185.708C169.914 167.258 199.625 151.136 247.262 147.437C344.343 139.702 378.706 185.236 378.706 185.236C378.706 185.236 345.868 148.77 253.741 156.047C205.822 159.869 170.565 184.612 173.9 220.649C176.894 252.995 208.972 275.155 264.349 270.667C284.813 268.161 285.424 247.776 262.371 249.297C259.894 249.526 257.55 249.596 255.342 249.556C232.538 249.805 204.625 241.416 202.332 216.646C198.883 186.252 241.703 174.966 264.756 173.445C336.97 168.011 380.444 202.685 385.478 243.586C388.009 270.93 360.112 316.715 276.129 323.851C179.048 331.586 144.685 286.052 144.685 286.052C144.685 286.052 177.523 322.518 269.65 315.241C317.57 311.419 353.038 286.853 349.703 250.816C346.71 218.469 314.632 196.309 259.254 200.798C237.554 203.443 236.801 223.62 259.854 222.099C262.331 221.87 264.676 221.8 266.884 221.84C289.687 221.591 317.601 229.98 319.893 254.75C323.343 285.144 280.41 295.215 257.469 297.951C184.683 304.075 141.782 268.711 136.748 227.81C135.642 215.862 140.597 200.072 153.424 185.708Z" fill="url(#paint2_linear_1:1258)"></path> <path d="M758.069 316.388H762.03V304.005H770.553C778.024 304.005 784.341 300.094 784.341 292.524C784.341 285.504 779.127 281.293 771.205 281.293H758.069V316.388ZM762.03 300.395V284.953H770.904C776.57 284.953 780.33 287.56 780.33 292.574C780.33 297.286 776.519 300.395 770.704 300.395H762.03Z" fill="white"></path> <path d="M830.916 316.388H834.876V302.751H844.904L855.081 316.388H859.945L849.165 302.049C854.68 301.047 858.691 297.637 858.691 291.822C858.691 288.964 857.688 286.507 855.984 284.803C853.778 282.597 850.318 281.293 846.007 281.293H830.916V316.388ZM834.876 299.192V284.953H845.706C851.371 284.953 854.68 287.56 854.68 291.872C854.68 296.484 850.92 299.192 845.656 299.192H834.876Z" fill="white"></path> <path d="M922.798 316.99C933.477 316.99 940.747 308.517 940.747 298.841C940.747 289.064 933.577 280.691 922.898 280.691C912.219 280.691 904.95 289.164 904.95 298.841C904.95 308.617 912.119 316.99 922.798 316.99ZM922.898 313.33C914.877 313.33 909.061 306.812 909.061 298.841C909.061 290.769 914.776 284.351 922.798 284.351C930.82 284.351 936.636 290.869 936.636 298.841C936.636 306.913 930.92 313.33 922.898 313.33Z" fill="white"></path> <path d="M995.333 316.388H999.344V284.953H1011.13V281.293H983.551V284.953H995.333V316.388Z" fill="white"></path> <path d="M1071.82 316.99C1082.5 316.99 1089.77 308.517 1089.77 298.841C1089.77 289.064 1082.6 280.691 1071.92 280.691C1061.24 280.691 1053.97 289.164 1053.97 298.841C1053.97 308.617 1061.14 316.99 1071.82 316.99ZM1071.92 313.33C1063.9 313.33 1058.08 306.812 1058.08 298.841C1058.08 290.769 1063.8 284.351 1071.82 284.351C1079.84 284.351 1085.66 290.869 1085.66 298.841C1085.66 306.913 1079.94 313.33 1071.92 313.33Z" fill="white"></path> <path d="M1153.52 316.99C1159.89 316.99 1163.9 314.734 1167.56 311.024L1164.95 308.266C1161.59 311.475 1158.44 313.33 1153.62 313.33C1145.9 313.33 1140.04 306.963 1140.04 298.841C1140.04 290.669 1145.85 284.351 1153.62 284.351C1158.39 284.351 1161.69 286.357 1164.65 289.164L1167.26 286.357C1163.75 283.048 1160.04 280.691 1153.67 280.691C1143.34 280.691 1135.92 288.914 1135.92 298.841C1135.92 309.018 1143.4 316.99 1153.52 316.99Z" fill="white"></path> <path d="M1229.17 316.99C1239.84 316.99 1247.11 308.517 1247.11 298.841C1247.11 289.064 1239.94 280.691 1229.27 280.691C1218.59 280.691 1211.32 289.164 1211.32 298.841C1211.32 308.617 1218.49 316.99 1229.17 316.99ZM1229.27 313.33C1221.24 313.33 1215.43 306.812 1215.43 298.841C1215.43 290.769 1221.14 284.351 1229.17 284.351C1237.19 284.351 1243 290.869 1243 298.841C1243 306.913 1237.29 313.33 1229.27 313.33Z" fill="white"></path> <path d="M1294.82 316.388H1318.54V312.728H1298.79V281.293H1294.82V316.388Z" fill="white"></path> <path d="M523.293 168.063V201.85H594.469C597.607 201.85 600.192 201.296 602.223 200.189C604.254 198.988 605.823 197.558 606.931 195.896C608.131 194.234 608.916 192.434 609.285 190.495C609.747 188.465 609.977 186.618 609.977 184.957C609.977 183.295 609.747 181.495 609.285 179.556C608.916 177.525 608.131 175.679 606.931 174.017C605.823 172.356 604.254 170.971 602.223 169.863C600.192 168.663 597.607 168.063 594.469 168.063H523.293ZM622.855 184.957C622.855 188.372 622.302 191.834 621.194 195.342C620.086 198.85 618.47 202.035 616.347 204.897C614.316 207.758 611.824 210.159 608.87 212.097C605.916 213.944 602.546 214.959 598.761 215.144H516.647C514.8 215.144 513.231 214.497 511.939 213.205C510.646 211.913 510 210.343 510 208.497V161.416C510 159.57 510.646 158 511.939 156.708C513.231 155.416 514.8 154.769 516.647 154.769H597.376C601.346 154.769 604.9 155.693 608.039 157.539C611.178 159.385 613.855 161.785 616.07 164.74C618.286 167.601 619.948 170.832 621.055 174.433C622.255 177.941 622.855 181.449 622.855 184.957Z" fill="white"></path> <path d="M771.027 178.31C772.873 178.31 774.443 178.956 775.735 180.248C777.027 181.541 777.674 183.11 777.674 184.957C777.674 186.803 777.027 188.372 775.735 189.665C774.443 190.957 772.873 191.603 771.027 191.603H702.067C700.221 191.603 698.652 190.957 697.359 189.665C696.067 188.372 695.421 186.803 695.421 184.957C695.421 183.11 696.067 181.541 697.359 180.248C698.652 178.956 700.221 178.31 702.067 178.31H771.027ZM700.544 168.063C697.313 168.063 694.682 168.663 692.651 169.863C690.713 170.971 689.143 172.356 687.943 174.017C686.835 175.679 686.051 177.525 685.589 179.556C685.22 181.495 685.035 183.295 685.035 184.957C685.035 186.618 685.22 188.465 685.589 190.495C686.051 192.434 686.835 194.234 687.943 195.896C689.143 197.558 690.713 198.988 692.651 200.189C694.682 201.296 697.313 201.85 700.544 201.85H776.843C778.689 201.85 780.258 202.496 781.551 203.789C782.843 205.081 783.49 206.651 783.49 208.497C783.49 210.343 782.843 211.913 781.551 213.205C780.258 214.497 778.689 215.144 776.843 215.144H696.113C692.328 215.144 688.959 214.221 686.005 212.374C683.05 210.528 680.512 208.174 678.389 205.312C676.358 202.358 674.788 199.081 673.68 195.481C672.573 191.88 672.019 188.372 672.019 184.957C672.019 181.449 672.573 177.941 673.68 174.433C674.881 170.832 676.588 167.601 678.804 164.74C681.02 161.785 683.697 159.385 686.835 157.539C689.974 155.693 693.528 154.769 697.498 154.769H776.843C778.689 154.769 780.258 155.416 781.551 156.708C782.843 158 783.49 159.57 783.49 161.416C783.49 163.262 782.843 164.832 781.551 166.124C780.258 167.417 778.689 168.063 776.843 168.063H700.544Z" fill="white"></path> <path d="M851.102 191.603C848.517 191.603 846.117 191.142 843.902 190.219C841.686 189.203 839.747 187.864 838.086 186.203C836.424 184.541 835.085 182.603 834.07 180.387C833.147 178.171 832.685 175.771 832.685 173.186C832.685 170.602 833.147 168.201 834.07 165.986C835.085 163.77 836.424 161.832 838.086 160.17C839.747 158.508 841.686 157.216 843.902 156.293C846.117 155.277 848.517 154.769 851.102 154.769H935.155C937.002 154.769 938.571 155.416 939.863 156.708C941.156 158 941.802 159.57 941.802 161.416C941.802 163.262 941.156 164.832 939.863 166.124C938.571 167.417 937.002 168.063 935.155 168.063H850.825C849.44 168.063 848.194 168.571 847.086 169.586C846.071 170.509 845.563 171.709 845.563 173.186C845.563 174.571 846.071 175.771 847.086 176.787C848.194 177.802 849.44 178.31 850.825 178.31H927.401C929.986 178.31 932.386 178.818 934.601 179.833C936.909 180.756 938.894 182.049 940.556 183.71C942.217 185.372 943.51 187.357 944.433 189.665C945.448 191.88 945.956 194.28 945.956 196.865C945.956 199.45 945.448 201.85 944.433 204.066C943.51 206.281 942.217 208.22 940.556 209.882C938.894 211.543 936.909 212.836 934.601 213.759C932.386 214.682 929.986 215.144 927.401 215.144H843.486C841.64 215.144 840.07 214.497 838.778 213.205C837.486 211.913 836.839 210.343 836.839 208.497C836.839 206.651 837.486 205.081 838.778 203.789C840.07 202.496 841.64 201.85 843.486 201.85H927.955C929.339 201.85 930.54 201.389 931.555 200.466C932.57 199.45 933.078 198.25 933.078 196.865C933.078 195.388 932.57 194.142 931.555 193.126C930.54 192.111 929.339 191.603 927.955 191.603H851.102Z" fill="white"></path> <path d="M995.11 161.416C995.11 159.57 995.756 158 997.048 156.708C998.341 155.416 999.91 154.769 1001.76 154.769H1084.7C1087.29 154.769 1089.69 155.277 1091.9 156.293C1094.21 157.216 1096.2 158.508 1097.86 160.17C1099.61 161.832 1100.95 163.77 1101.87 165.986C1102.89 168.201 1103.4 170.602 1103.4 173.186C1103.4 175.771 1102.89 178.171 1101.87 180.387C1100.95 182.603 1099.61 184.541 1097.86 186.203C1096.2 187.864 1094.21 189.203 1091.9 190.219C1089.69 191.142 1087.29 191.603 1084.7 191.603H1012.7C1011.5 191.788 1010.48 192.342 1009.65 193.265C1008.82 194.188 1008.4 195.342 1008.4 196.727V208.497C1008.4 210.343 1007.71 211.913 1006.33 213.205C1005.03 214.497 1003.51 215.144 1001.76 215.144C999.91 215.144 998.341 214.497 997.048 213.205C995.756 211.913 995.11 210.343 995.11 208.497V195.204C995.11 192.896 995.525 190.726 996.356 188.695C997.187 186.572 998.341 184.772 999.818 183.295C1001.39 181.726 1003.14 180.525 1005.08 179.695C1007.11 178.771 1009.33 178.31 1011.73 178.31H1085.26C1086.64 178.31 1087.84 177.848 1088.86 176.925C1089.96 175.91 1090.52 174.663 1090.52 173.186C1090.52 171.802 1089.96 170.602 1088.86 169.586C1087.84 168.571 1086.64 168.063 1085.26 168.063H1001.76C999.91 168.063 998.341 167.417 997.048 166.124C995.756 164.832 995.11 163.262 995.11 161.416Z" fill="white"></path> <path d="M1186.62 200.189C1186.62 197.788 1187.45 195.757 1189.11 194.096C1190.78 192.434 1192.81 191.603 1195.21 191.603C1197.61 191.603 1199.64 192.434 1201.3 194.096C1202.96 195.757 1203.79 197.788 1203.79 200.189C1203.79 202.589 1202.96 204.62 1201.3 206.281C1199.64 207.943 1197.61 208.774 1195.21 208.774C1192.81 208.774 1190.78 207.943 1189.11 206.281C1187.45 204.62 1186.62 202.589 1186.62 200.189ZM1157.4 212.651C1156.02 214.313 1154.31 215.144 1152.28 215.144C1150.43 215.144 1148.87 214.497 1147.57 213.205C1146.28 211.913 1145.63 210.343 1145.63 208.497C1145.63 206.835 1146.1 205.497 1147.02 204.481L1180.67 159.201C1182.24 157.077 1184.31 155.37 1186.9 154.077C1189.48 152.692 1192.25 152 1195.21 152C1197.98 152 1200.61 152.6 1203.1 153.8C1205.59 155 1207.62 156.662 1209.19 158.785L1242.84 203.789C1243.4 204.435 1243.86 205.174 1244.23 206.004C1244.6 206.743 1244.78 207.574 1244.78 208.497C1244.78 210.343 1244.13 211.913 1242.84 213.205C1241.55 214.497 1239.98 215.144 1238.13 215.144C1235.92 215.144 1234.16 214.267 1232.87 212.513L1200.61 169.448C1199.96 168.709 1199.13 167.924 1198.12 167.094C1197.19 166.17 1196.22 165.709 1195.21 165.709C1194.19 165.709 1193.18 166.17 1192.16 167.094C1191.24 167.924 1190.5 168.709 1189.95 169.448L1157.4 212.651Z" fill="white"></path> <path d="M1290.48 184.957C1290.48 181.449 1291.03 177.941 1292.14 174.433C1293.34 170.832 1295.05 167.601 1297.26 164.74C1299.48 161.785 1302.16 159.385 1305.3 157.539C1308.43 155.693 1311.99 154.769 1315.96 154.769H1396.69C1398.53 154.769 1400.1 155.416 1401.4 156.708C1402.69 158 1403.33 159.57 1403.33 161.416C1403.33 163.262 1402.69 164.832 1401.4 166.124C1400.1 167.417 1398.53 168.063 1396.69 168.063H1318.87C1315.63 168.063 1313 168.663 1310.97 169.863C1309.03 170.971 1307.47 172.356 1306.27 174.017C1305.16 175.679 1304.37 177.525 1303.91 179.556C1303.54 181.495 1303.36 183.295 1303.36 184.957C1303.36 186.618 1303.54 188.465 1303.91 190.495C1304.37 192.434 1305.16 194.234 1306.27 195.896C1307.47 197.558 1309.03 198.988 1310.97 200.189C1313 201.296 1315.63 201.85 1318.87 201.85H1396.69C1398.53 201.85 1400.1 202.496 1401.4 203.789C1402.69 205.081 1403.33 206.651 1403.33 208.497C1403.33 210.343 1402.69 211.913 1401.4 213.205C1400.1 214.497 1398.53 215.144 1396.69 215.144H1314.57C1310.79 215.144 1307.42 214.221 1304.46 212.374C1301.51 210.528 1298.97 208.174 1296.85 205.312C1294.82 202.358 1293.25 199.081 1292.14 195.481C1291.03 191.88 1290.48 188.372 1290.48 184.957Z" fill="white"></path> <path d="M1452.5 161.416C1452.5 159.57 1453.14 158 1454.44 156.708C1455.73 155.416 1457.3 154.769 1459.14 154.769H1557.32C1559.17 154.769 1560.74 155.416 1562.03 156.708C1563.32 158 1563.97 159.57 1563.97 161.416C1563.97 163.262 1563.32 164.832 1562.03 166.124C1560.74 167.417 1559.17 168.063 1557.32 168.063H1459.14C1457.3 168.063 1455.73 167.417 1454.44 166.124C1453.14 164.832 1452.5 163.262 1452.5 161.416ZM1469.39 215.144C1467.36 215.144 1465.33 214.728 1463.3 213.897C1461.27 212.974 1459.47 211.728 1457.9 210.159C1456.33 208.589 1455.04 206.697 1454.02 204.481C1453.01 202.266 1452.5 199.773 1452.5 197.004V184.541C1452.5 182.049 1453.19 180.387 1454.57 179.556C1456.05 178.725 1458.31 178.31 1461.36 178.31H1554.28C1556.12 178.31 1557.69 178.956 1558.98 180.248C1560.28 181.541 1560.92 183.11 1560.92 184.957C1560.92 186.803 1560.28 188.372 1558.98 189.665C1557.69 190.957 1556.12 191.603 1554.28 191.603H1465.79V198.388C1465.79 199.312 1466.16 200.142 1466.9 200.881C1467.73 201.527 1468.79 201.85 1470.08 201.85H1557.32C1559.17 201.85 1560.74 202.496 1562.03 203.789C1563.32 205.081 1563.97 206.651 1563.97 208.497C1563.97 210.343 1563.32 211.913 1562.03 213.205C1560.74 214.497 1559.17 215.144 1557.32 215.144H1469.39Z" fill="white"></path> <path fill-rule="evenodd" clip-rule="evenodd" d="M606.109 195.326L606.12 195.31C607.238 193.763 607.962 192.098 608.303 190.308L608.306 190.291L608.31 190.274C608.759 188.298 608.977 186.528 608.977 184.957C608.977 183.387 608.759 181.665 608.312 179.788L608.306 179.762L608.301 179.735C607.958 177.85 607.233 176.143 606.12 174.603L606.109 174.587L606.099 174.572C605.094 173.065 603.656 171.783 601.744 170.741L601.729 170.733L601.714 170.724C599.88 169.64 597.486 169.063 594.469 169.063H524.293V200.85H594.469C597.489 200.85 599.89 200.318 601.729 199.319C603.647 198.183 605.091 196.853 606.099 195.341L606.109 195.326ZM602.223 200.189C600.192 201.296 597.607 201.85 594.469 201.85H523.293V168.063H594.469C597.607 168.063 600.192 168.663 602.223 169.863C604.254 170.971 605.823 172.356 606.931 174.017C608.131 175.679 608.916 177.525 609.285 179.556C609.747 181.495 609.977 183.295 609.977 184.957C609.977 186.618 609.747 188.465 609.285 190.495C608.916 192.434 608.131 194.234 606.931 195.896C605.823 197.558 604.254 198.988 602.223 200.189ZM609.409 212.939L609.4 212.945C606.288 214.89 602.75 215.95 598.81 216.142L598.786 216.144H516.647C514.538 216.144 512.714 215.394 511.232 213.912C509.749 212.43 509 210.605 509 208.497V161.416C509 159.308 509.749 157.483 511.232 156.001C512.714 154.519 514.538 153.769 516.647 153.769H597.376C601.508 153.769 605.24 154.732 608.546 156.677C611.798 158.59 614.573 161.078 616.866 164.133C619.153 167.089 620.866 170.421 622.007 174.124C623.237 177.725 623.855 181.337 623.855 184.957C623.855 188.482 623.284 192.045 622.147 195.643C621.008 199.25 619.345 202.533 617.157 205.484C615.054 208.444 612.473 210.929 609.418 212.933L609.409 212.939ZM616.347 204.897C618.47 202.035 620.086 198.85 621.194 195.342C622.302 191.834 622.855 188.372 622.855 184.957C622.855 181.449 622.255 177.941 621.055 174.433C619.948 170.832 618.286 167.601 616.07 164.74C613.855 161.785 611.178 159.385 608.039 157.539C604.9 155.693 601.346 154.769 597.376 154.769H516.647C514.8 154.769 513.231 155.416 511.939 156.708C510.646 158 510 159.57 510 161.416V208.497C510 210.343 510.646 211.913 511.939 213.205C513.231 214.497 514.8 215.144 516.647 215.144H598.761C602.546 214.959 605.916 213.944 608.87 212.097C611.824 210.159 614.316 207.758 616.347 204.897ZM693.154 170.728L693.147 170.731C691.327 171.771 689.873 173.058 688.765 174.588C687.736 176.135 687.003 177.856 686.568 179.76C686.211 181.642 686.035 183.373 686.035 184.957C686.035 186.539 686.21 188.315 686.568 190.29C687.002 192.097 687.733 193.774 688.765 195.325C689.874 196.857 691.331 198.191 693.154 199.324C694.989 200.317 697.431 200.85 700.544 200.85H776.843C778.951 200.85 780.776 201.6 782.258 203.082C783.74 204.564 784.49 206.388 784.49 208.497C784.49 210.605 783.74 212.43 782.258 213.912C780.776 215.394 778.951 216.144 776.843 216.144H696.113C692.158 216.144 688.601 215.176 685.475 213.222C682.412 211.308 679.781 208.868 677.585 205.908L677.575 205.893L677.564 205.879C675.473 202.837 673.861 199.467 672.725 195.775C671.591 192.089 671.019 188.482 671.019 184.957C671.019 181.342 671.59 177.732 672.727 174.131L672.729 174.124L672.732 174.116C673.965 170.417 675.723 167.087 678.009 164.133C680.301 161.078 683.076 158.59 686.328 156.677C689.634 154.732 693.367 153.769 697.498 153.769H776.843C778.951 153.769 780.776 154.519 782.258 156.001C783.74 157.483 784.49 159.308 784.49 161.416C784.49 163.525 783.74 165.349 782.258 166.831C780.776 168.313 778.951 169.063 776.843 169.063H700.544C697.429 169.063 694.99 169.643 693.16 170.724L693.154 170.728ZM678.804 164.74C681.02 161.785 683.697 159.385 686.835 157.539C689.974 155.693 693.528 154.769 697.498 154.769H776.843C778.689 154.769 780.258 155.416 781.551 156.708C782.843 158 783.49 159.57 783.49 161.416C783.49 163.262 782.843 164.832 781.551 166.124C780.258 167.417 778.689 168.063 776.843 168.063H700.544C697.313 168.063 694.682 168.663 692.651 169.863C690.713 170.971 689.143 172.356 687.943 174.017C686.835 175.679 686.051 177.525 685.589 179.556C685.22 181.495 685.035 183.295 685.035 184.957C685.035 186.618 685.22 188.465 685.589 190.495C686.051 192.434 686.835 194.234 687.943 195.896C689.143 197.558 690.713 198.988 692.651 200.189C694.682 201.296 697.313 201.85 700.544 201.85H776.843C778.689 201.85 780.258 202.496 781.551 203.789C782.843 205.081 783.49 206.651 783.49 208.497C783.49 210.343 782.843 211.913 781.551 213.205C780.258 214.497 778.689 215.144 776.843 215.144H696.113C692.328 215.144 688.959 214.221 686.005 212.374C683.05 210.528 680.512 208.174 678.389 205.312C676.358 202.358 674.788 199.081 673.68 195.481C672.573 191.88 672.019 188.372 672.019 184.957C672.019 181.449 672.573 177.941 673.68 174.433C674.881 170.832 676.588 167.601 678.804 164.74ZM843.501 191.135L843.485 191.128C841.165 190.064 839.127 188.659 837.379 186.91C835.63 185.161 834.224 183.123 833.161 180.804L833.154 180.788L833.147 180.772C832.169 178.425 831.685 175.893 831.685 173.186C831.685 170.48 832.169 167.948 833.147 165.601L833.154 165.585L833.161 165.569C834.224 163.25 835.63 161.212 837.379 159.463C839.131 157.711 841.174 156.348 843.501 155.376C845.851 154.302 848.389 153.769 851.102 153.769H935.155C937.264 153.769 939.088 154.519 940.57 156.001C942.053 157.483 942.802 159.308 942.802 161.416C942.802 163.525 942.053 165.349 940.57 166.831C939.088 168.313 937.264 169.063 935.155 169.063H850.825C849.713 169.063 848.703 169.461 847.762 170.323L847.759 170.326C846.969 171.044 846.563 171.967 846.563 173.186C846.563 174.288 846.953 175.232 847.778 176.064C848.714 176.916 849.719 177.31 850.825 177.31H927.401C930.112 177.31 932.648 177.842 934.996 178.914C937.412 179.884 939.505 181.246 941.263 183.003C943.02 184.761 944.382 186.854 945.352 189.27C946.424 191.618 946.956 194.154 946.956 196.865C946.956 199.579 946.423 202.117 945.349 204.467C944.377 206.793 943.015 208.837 941.263 210.589C939.501 212.35 937.403 213.715 934.979 214.685C932.634 215.661 930.105 216.144 927.401 216.144H843.486C841.378 216.144 839.553 215.394 838.071 213.912C836.589 212.43 835.839 210.605 835.839 208.497C835.839 206.388 836.589 204.564 838.071 203.082C839.553 201.6 841.378 200.85 843.486 200.85H927.955C929.085 200.85 930.039 200.485 930.864 199.742C931.689 198.91 932.078 197.967 932.078 196.865C932.078 195.645 931.67 194.656 930.848 193.834C930.012 192.998 929.063 192.603 927.955 192.603H851.102C848.396 192.603 845.864 192.119 843.517 191.142L843.501 191.135ZM931.555 200.466C930.54 201.389 929.339 201.85 927.955 201.85H843.486C841.64 201.85 840.07 202.496 838.778 203.789C837.486 205.081 836.839 206.651 836.839 208.497C836.839 210.343 837.486 211.913 838.778 213.205C840.07 214.497 841.64 215.144 843.486 215.144H927.401C929.986 215.144 932.386 214.682 934.601 213.759C936.909 212.836 938.894 211.543 940.556 209.882C942.217 208.22 943.51 206.281 944.433 204.066C945.448 201.85 945.956 199.45 945.956 196.865C945.956 194.28 945.448 191.88 944.433 189.665C943.51 187.357 942.217 185.372 940.556 183.71C938.894 182.049 936.909 180.756 934.601 179.833C932.386 178.818 929.986 178.31 927.401 178.31H850.825C849.44 178.31 848.194 177.802 847.086 176.787C846.071 175.771 845.563 174.571 845.563 173.186C845.563 171.709 846.071 170.509 847.086 169.586C848.194 168.571 849.44 168.063 850.825 168.063H935.155C937.002 168.063 938.571 167.417 939.863 166.124C941.156 164.832 941.802 163.262 941.802 161.416C941.802 159.57 941.156 158 939.863 156.708C938.571 155.416 937.002 154.769 935.155 154.769H851.102C848.517 154.769 846.117 155.277 843.902 156.293C841.686 157.216 839.747 158.508 838.086 160.17C836.424 161.832 835.085 163.77 834.07 165.986C833.147 168.201 832.685 170.602 832.685 173.186C832.685 175.771 833.147 178.171 834.07 180.387C835.085 182.603 836.424 184.541 838.086 186.203C839.747 187.864 841.686 189.203 843.902 190.219C846.117 191.142 848.517 191.603 851.102 191.603H927.955C929.339 191.603 930.54 192.111 931.555 193.126C932.57 194.142 933.078 195.388 933.078 196.865C933.078 198.25 932.57 199.45 931.555 200.466ZM1092.3 191.138L1092.29 191.142C1089.94 192.119 1087.41 192.603 1084.7 192.603H1012.78C1011.84 192.762 1011.06 193.197 1010.39 193.934C1009.75 194.652 1009.4 195.559 1009.4 196.727V208.497C1009.4 210.623 1008.59 212.451 1007.02 213.925C1005.55 215.388 1003.78 216.144 1001.76 216.144C999.648 216.144 997.823 215.394 996.341 213.912C994.859 212.43 994.11 210.605 994.11 208.497V195.204C994.11 192.776 994.547 190.479 995.427 188.324C996.304 186.087 997.529 184.17 999.111 182.588C1000.76 180.936 1002.62 179.663 1004.68 178.78C1006.84 177.796 1009.2 177.31 1011.73 177.31H1085.26C1086.39 177.31 1087.35 176.94 1088.18 176.186C1089.09 175.357 1089.52 174.377 1089.52 173.186C1089.52 172.108 1089.1 171.167 1088.18 170.323L1088.16 170.309L1088.15 170.293C1087.31 169.457 1086.36 169.063 1085.26 169.063H1001.76C999.648 169.063 997.823 168.313 996.341 166.831C994.859 165.349 994.11 163.525 994.11 161.416C994.11 159.308 994.859 157.483 996.341 156.001C997.823 154.519 999.648 153.769 1001.76 153.769H1084.7C1087.41 153.769 1089.95 154.301 1092.3 155.373C1094.71 156.341 1096.8 157.7 1098.55 159.453C1100.4 161.204 1101.81 163.251 1102.79 165.586C1103.86 167.935 1104.4 170.473 1104.4 173.186C1104.4 175.9 1103.86 178.438 1102.79 180.787C1101.81 183.122 1100.4 185.168 1098.55 186.92C1096.8 188.671 1094.71 190.074 1092.31 191.134L1092.3 191.138ZM1097.86 186.203C1096.2 187.864 1094.21 189.203 1091.9 190.219C1089.69 191.142 1087.29 191.603 1084.7 191.603H1012.7C1011.5 191.788 1010.48 192.342 1009.65 193.265C1008.82 194.188 1008.4 195.342 1008.4 196.727V208.497C1008.4 210.343 1007.71 211.913 1006.33 213.205C1005.03 214.497 1003.51 215.144 1001.76 215.144C999.91 215.144 998.341 214.497 997.048 213.205C995.756 211.913 995.11 210.343 995.11 208.497V195.204C995.11 192.896 995.525 190.726 996.356 188.695C997.187 186.572 998.341 184.772 999.818 183.295C1001.39 181.726 1003.14 180.525 1005.08 179.695C1007.11 178.771 1009.33 178.31 1011.73 178.31H1085.26C1086.64 178.31 1087.84 177.848 1088.86 176.925C1089.96 175.91 1090.52 174.663 1090.52 173.186C1090.52 171.802 1089.96 170.602 1088.86 169.586C1087.84 168.571 1086.64 168.063 1085.26 168.063H1001.76C999.91 168.063 998.341 167.417 997.048 166.124C995.756 164.832 995.11 163.262 995.11 161.416C995.11 159.57 995.756 158 997.048 156.708C998.341 155.416 999.91 154.769 1001.76 154.769H1084.7C1087.29 154.769 1089.69 155.277 1091.9 156.293C1094.21 157.216 1096.2 158.508 1097.86 160.17C1099.61 161.832 1100.95 163.77 1101.87 165.986C1102.89 168.201 1103.4 170.602 1103.4 173.186C1103.4 175.771 1102.89 178.171 1101.87 180.387C1100.95 182.603 1099.61 184.541 1097.86 186.203ZM1158.19 213.272L1158.17 213.291C1156.61 215.164 1154.63 216.144 1152.28 216.144C1150.17 216.144 1148.35 215.394 1146.87 213.912C1145.38 212.43 1144.63 210.605 1144.63 208.497C1144.63 206.661 1145.14 205.078 1146.24 203.847L1179.86 158.606C1181.53 156.348 1183.73 154.544 1186.44 153.189C1189.17 151.73 1192.09 151 1195.21 151C1198.13 151 1200.91 151.634 1203.53 152.899C1206.17 154.166 1208.33 155.93 1210 158.189C1210 158.19 1210 158.19 1210 158.191L1243.62 203.164C1244.23 203.877 1244.73 204.684 1245.13 205.579C1245.57 206.466 1245.78 207.445 1245.78 208.497C1245.78 210.605 1245.03 212.43 1243.55 213.912C1242.07 215.394 1240.24 216.144 1238.13 216.144C1235.61 216.144 1233.55 215.121 1232.07 213.108C1232.07 213.107 1232.07 213.107 1232.07 213.106L1199.83 170.078C1199.23 169.4 1198.45 168.663 1197.48 167.868L1197.44 167.836L1197.41 167.801C1196.62 167.009 1195.89 166.709 1195.21 166.709C1194.52 166.709 1193.73 167.018 1192.83 167.833L1192.83 167.837C1191.94 168.638 1191.25 169.375 1190.75 170.048L1190.74 170.049L1158.19 213.272ZM1200.61 169.448L1232.87 212.513C1234.16 214.267 1235.92 215.144 1238.13 215.144C1239.98 215.144 1241.55 214.497 1242.84 213.205C1244.13 211.913 1244.78 210.343 1244.78 208.497C1244.78 207.574 1244.6 206.743 1244.23 206.004C1243.86 205.174 1243.4 204.435 1242.84 203.789L1209.19 158.785C1207.62 156.662 1205.59 155 1203.1 153.8C1200.61 152.6 1197.98 152 1195.21 152C1192.25 152 1189.48 152.692 1186.9 154.077C1184.31 155.37 1182.24 157.077 1180.67 159.201L1147.02 204.481C1146.1 205.497 1145.63 206.835 1145.63 208.497C1145.63 210.343 1146.28 211.913 1147.57 213.205C1148.87 214.497 1150.43 215.144 1152.28 215.144C1154.31 215.144 1156.02 214.313 1157.4 212.651L1189.95 169.448C1190.5 168.709 1191.24 167.924 1192.16 167.094C1193.18 166.17 1194.19 165.709 1195.21 165.709C1196.22 165.709 1197.19 166.17 1198.12 167.094C1199.13 167.924 1199.96 168.709 1200.61 169.448ZM1291.19 174.124L1291.19 174.116C1292.43 170.417 1294.18 167.087 1296.47 164.133C1298.76 161.078 1301.54 158.59 1304.79 156.677C1308.09 154.732 1311.83 153.769 1315.96 153.769H1396.69C1398.8 153.769 1400.62 154.519 1402.1 156.001C1403.59 157.483 1404.33 159.308 1404.33 161.416C1404.33 163.525 1403.59 165.349 1402.1 166.831C1400.62 168.313 1398.8 169.063 1396.69 169.063H1318.87C1315.75 169.063 1313.31 169.643 1311.48 170.724L1311.48 170.728L1311.47 170.731C1309.65 171.771 1308.19 173.058 1307.09 174.588C1306.06 176.135 1305.32 177.857 1304.89 179.761C1304.53 181.642 1304.36 183.373 1304.36 184.957C1304.36 186.539 1304.53 188.316 1304.89 190.291C1305.32 192.097 1306.05 193.774 1307.09 195.325C1308.2 196.857 1309.65 198.191 1311.48 199.324C1313.31 200.317 1315.75 200.85 1318.87 200.85H1396.69C1398.8 200.85 1400.62 201.6 1402.1 203.082C1403.59 204.564 1404.33 206.388 1404.33 208.497C1404.33 210.605 1403.59 212.43 1402.1 213.912C1400.62 215.394 1398.8 216.144 1396.69 216.144H1314.57C1310.62 216.144 1307.06 215.176 1303.93 213.222C1300.87 211.308 1298.24 208.868 1296.05 205.908L1296.03 205.893L1296.02 205.879C1293.93 202.837 1292.32 199.467 1291.18 195.775C1290.05 192.089 1289.48 188.482 1289.48 184.957C1289.48 181.342 1290.05 177.732 1291.19 174.131L1291.19 174.124ZM1310.97 200.189C1309.03 198.988 1307.47 197.558 1306.27 195.896C1305.16 194.234 1304.37 192.434 1303.91 190.495C1303.54 188.465 1303.36 186.618 1303.36 184.957C1303.36 183.295 1303.54 181.495 1303.91 179.556C1304.37 177.525 1305.16 175.679 1306.27 174.017C1307.47 172.356 1309.03 170.971 1310.97 169.863C1313 168.663 1315.64 168.063 1318.87 168.063H1396.69C1398.53 168.063 1400.1 167.417 1401.4 166.124C1402.69 164.832 1403.33 163.262 1403.33 161.416C1403.33 159.57 1402.69 158 1401.4 156.708C1400.1 155.416 1398.53 154.769 1396.69 154.769H1315.96C1311.99 154.769 1308.43 155.693 1305.3 157.539C1302.16 159.385 1299.48 161.785 1297.26 164.74C1295.05 167.601 1293.34 170.832 1292.14 174.433C1291.03 177.941 1290.48 181.449 1290.48 184.957C1290.48 188.372 1291.03 191.88 1292.14 195.481C1293.25 199.081 1294.82 202.358 1296.85 205.312C1298.97 208.174 1301.51 210.528 1304.46 212.374C1307.42 214.221 1310.79 215.144 1314.57 215.144H1396.69C1398.53 215.144 1400.1 214.497 1401.4 213.205C1402.69 211.913 1403.33 210.343 1403.33 208.497C1403.33 206.651 1402.69 205.081 1401.4 203.789C1400.1 202.496 1398.53 201.85 1396.69 201.85H1318.87C1315.64 201.85 1313 201.296 1310.97 200.189ZM1462.9 214.816L1462.88 214.808C1460.75 213.835 1458.85 212.52 1457.19 210.866C1455.53 209.204 1454.17 207.211 1453.11 204.898C1452.03 202.535 1451.5 199.897 1451.5 197.004V184.541C1451.5 181.901 1452.23 179.795 1454.06 178.699L1454.07 178.691L1454.08 178.685C1455.79 177.726 1458.26 177.31 1461.36 177.31H1554.28C1556.38 177.31 1558.21 178.059 1559.69 179.541C1561.17 181.023 1561.92 182.848 1561.92 184.957C1561.92 187.065 1561.17 188.89 1559.69 190.372C1558.21 191.854 1556.38 192.603 1554.28 192.603H1466.79V198.388C1466.79 198.995 1467.02 199.566 1467.56 200.129C1468.17 200.587 1468.99 200.85 1470.08 200.85H1557.32C1559.43 200.85 1561.25 201.6 1562.74 203.082C1564.22 204.564 1564.97 206.388 1564.97 208.497C1564.97 210.605 1564.22 212.43 1562.74 213.912C1561.25 215.394 1559.43 216.144 1557.32 216.144H1469.39C1467.22 216.144 1465.06 215.699 1462.92 214.823L1462.9 214.816ZM1466.9 200.881C1466.16 200.142 1465.79 199.312 1465.79 198.388V191.603H1554.28C1556.12 191.603 1557.69 190.957 1558.98 189.665C1560.28 188.372 1560.92 186.803 1560.92 184.957C1560.92 183.11 1560.28 181.541 1558.98 180.248C1557.69 178.956 1556.12 178.31 1554.28 178.31H1461.36C1458.31 178.31 1456.05 178.725 1454.57 179.556C1453.19 180.387 1452.5 182.049 1452.5 184.541V197.004C1452.5 199.773 1453.01 202.266 1454.02 204.481C1455.04 206.697 1456.33 208.589 1457.9 210.159C1459.47 211.728 1461.27 212.974 1463.3 213.897C1465.33 214.728 1467.36 215.144 1469.39 215.144H1557.32C1559.17 215.144 1560.74 214.497 1562.03 213.205C1563.32 211.913 1563.97 210.343 1563.97 208.497C1563.97 206.651 1563.32 205.081 1562.03 203.789C1560.74 202.496 1559.17 201.85 1557.32 201.85H1470.08C1468.79 201.85 1467.73 201.527 1466.9 200.881ZM771.027 177.31C773.135 177.31 774.96 178.059 776.442 179.541C777.924 181.023 778.674 182.848 778.674 184.957C778.674 187.065 777.924 188.89 776.442 190.372C774.96 191.854 773.135 192.603 771.027 192.603H702.067C699.959 192.603 698.134 191.854 696.652 190.372C695.17 188.89 694.421 187.065 694.421 184.957C694.421 182.848 695.17 181.023 696.652 179.541C698.134 178.059 699.959 177.31 702.067 177.31H771.027ZM1185.62 200.189C1185.62 197.53 1186.55 195.242 1188.41 193.389C1190.26 191.535 1192.55 190.603 1195.21 190.603C1197.87 190.603 1200.15 191.535 1202.01 193.389C1203.86 195.242 1204.79 197.53 1204.79 200.189C1204.79 202.848 1203.86 205.135 1202.01 206.989C1200.15 208.842 1197.87 209.774 1195.21 209.774C1192.55 209.774 1190.26 208.842 1188.41 206.989C1186.55 205.135 1185.62 202.848 1185.62 200.189ZM1451.5 161.416C1451.5 159.308 1452.25 157.483 1453.73 156.001C1455.21 154.519 1457.04 153.769 1459.14 153.769H1557.32C1559.43 153.769 1561.25 154.519 1562.74 156.001C1564.22 157.483 1564.97 159.308 1564.97 161.416C1564.97 163.525 1564.22 165.349 1562.74 166.831C1561.25 168.313 1559.43 169.063 1557.32 169.063H1459.14C1457.04 169.063 1455.21 168.313 1453.73 166.831C1452.25 165.349 1451.5 163.525 1451.5 161.416ZM1189.11 194.096C1187.45 195.757 1186.62 197.788 1186.62 200.189C1186.62 202.589 1187.45 204.62 1189.11 206.281C1190.78 207.943 1192.81 208.774 1195.21 208.774C1197.61 208.774 1199.64 207.943 1201.3 206.281C1202.96 204.62 1203.79 202.589 1203.79 200.189C1203.79 197.788 1202.96 195.757 1201.3 194.096C1199.64 192.434 1197.61 191.603 1195.21 191.603C1192.81 191.603 1190.78 192.434 1189.11 194.096ZM771.027 178.31C772.873 178.31 774.443 178.956 775.735 180.248C777.027 181.541 777.674 183.11 777.674 184.957C777.674 186.803 777.027 188.372 775.735 189.665C774.443 190.957 772.873 191.603 771.027 191.603H702.067C700.221 191.603 698.652 190.957 697.359 189.665C696.067 188.372 695.421 186.803 695.421 184.957C695.421 183.11 696.067 181.541 697.359 180.248C698.652 178.956 700.221 178.31 702.067 178.31H771.027ZM1454.44 156.708C1453.14 158 1452.5 159.57 1452.5 161.416C1452.5 163.262 1453.14 164.832 1454.44 166.124C1455.73 167.417 1457.3 168.063 1459.14 168.063H1557.32C1559.17 168.063 1560.74 167.417 1562.03 166.124C1563.32 164.832 1563.97 163.262 1563.97 161.416C1563.97 159.57 1563.32 158 1562.03 156.708C1560.74 155.416 1559.17 154.769 1557.32 154.769H1459.14C1457.3 154.769 1455.73 155.416 1454.44 156.708Z" fill="white"></path> <defs> <linearGradient id="paint0_linear_1:1258" x1="133.43" y1="342.93" x2="510.016" y2="309.006" gradientUnits="userSpaceOnUse"> <stop stop-color="#262626"></stop> <stop offset="1"></stop> </linearGradient> <linearGradient id="paint1_linear_1:1258" x1="20.5442" y1="136.724" x2="514.644" y2="332.164" gradientUnits="userSpaceOnUse"> <stop offset="0.114583" stop-color="#68CFFF"></stop> <stop offset="0.401042" stop-color="#FF4696"></stop> <stop offset="0.671875" stop-color="#E935F9"></stop> <stop offset="1" stop-color="#4003B1"></stop> </linearGradient> <linearGradient id="paint2_linear_1:1258" x1="136.598" y1="146.553" x2="305.241" y2="382.256" gradientUnits="userSpaceOnUse"> <stop offset="0.149053" stop-color="#FF0000"></stop> <stop offset="0.265625" stop-color="#FF007A" stop-opacity="0.8"></stop> <stop offset="0.546875" stop-color="#D900C4"></stop> <stop offset="0.828125" stop-color="#0066FF"></stop> </linearGradient> </defs> </svg> 