<svg width="108" height="18" fill="none" xmlns="http://www.w3.org/2000/svg"><path d="M58.813.246C52.023.5 40.877 1.745 34.767 2.905c-6.817 1.3-16.35 4.045-22.347 6.393-3.96 1.556-10.693 4.95-11.712 5.884-.82.764-.933 1.584-.31 2.121.367.283.82.198 2.63-.509 1.188-.48 2.574-.962 3.027-1.075.48-.113 3.083-1.046 5.799-2.093 5.573-2.15 13.861-4.922 18.529-6.195 16.888-4.64 35.445-6.026 50.89-3.82 6.11.85 15.474 2.943 23.621 5.234 1.613.453 2.999.764 3.084.707.509-.537-7.78-3.45-15.22-5.374C83.962 1.915 77.341.84 68.996.33 64.526.076 63.593.048 58.813.246Z" fill="#BD1B7F"/><path d="M51.486 6.3c-10.693.763-20.792 3.309-28.656 7.185-2.914 1.414-4.385 2.63-4.102 3.366.283.707 1.612.537 4.64-.51 1.527-.537 4.44-1.584 6.449-2.29 8.967-3.197 18.727-4.951 30.778-5.517 6.676-.311 14.257-.057 24.922.849 3.734.31 6.817.509 6.874.452.226-.198-4.385-1.301-7.836-1.838-10.495-1.67-23.96-2.348-33.07-1.698Z" fill="#BD1B7F"/></svg>