<svg width="39" height="23" fill="none" xmlns="http://www.w3.org/2000/svg"><path d="M36.792.166c-.92.317-3.72 1.98-4.89 2.87-.71.574-.902.831-.902 1.286 0 .89.767.91 1.86.02.48-.376 1.746-1.267 2.8-1.96C37.29 1.276 38 .623 38 .207c0-.257-.575-.277-1.208-.04ZM23.782 1.29c-2.138 1.042-3.973 2.898-5.143 5.247l-.726 1.459-.666-.871c-1.351-1.762-3.086-2.463-4.578-1.876-1.07.417-1.594.91-2.098 2.008-1.008 2.216-.665 4.812.908 7.009 1.13 1.553 6.998 6.99 7.543 6.99.222 0 .504.17.625.379.323.549 1.09.473 1.674-.19.283-.303.747-1.174 1.05-1.932.302-.758 1.431-3.22 2.48-5.455 2.703-5.74 3.106-6.933 3.146-8.903.02-1.326-.06-1.762-.443-2.5-.262-.512-.706-1.08-.989-1.289-.625-.455-1.936-.492-2.783-.076Zm1.614 1.137c.605.227.988 1.231.968 2.652-.04 1.534-.505 3.03-1.695 5.247-.463.833-1.17 2.292-1.613 3.24-1.19 2.613-3.49 6.894-3.711 6.913-.101.02-.888-.72-1.715-1.61-5.183-5.588-5.849-6.535-6.01-8.6-.08-1.08-.02-1.44.403-2.292 1.15-2.349 2.965-1.818 4.68 1.364.907 1.686 1.25 2.065 1.835 2.065.504 0 .908-.663.908-1.478.02-2.368 2.42-6.251 4.477-7.217.968-.436.989-.455 1.473-.284ZM.253 7.307c-.343.334-.343.36.038.616C.805 8.308 3.776 9 4.824 9c.99 0 1.466-.564.99-1.205C5.3 7.076.881 6.692.253 7.307ZM33.76 9.166c-2.9.164-3.76.43-3.76 1.127 0 .86.8.902 4.9.307 3.16-.47 4.1-.737 4.1-1.126 0-.554-.46-.574-5.24-.308ZM3.687 13.767C1.832 14.482 1 15.075 1 15.667c0 .444.832.444 2.431 0 .938-.272 2.175-.568 2.73-.642 2.089-.32 2.558-1.925.575-2.024-.597-.024-1.706.247-3.05.766ZM29.327 15.206c-.44.359-.44.478.02.803.356.273 4.097.991 5.121.991 1.213 0 .21-.957-1.567-1.504-1.756-.53-3.135-.65-3.574-.29ZM8.029 20.248c-.91.688-1.777 1.453-1.907 1.701-.239.478-.109 1.051.238 1.051s4.247-2.694 4.507-3.115c.174-.287.174-.497.022-.65-.455-.496-1.213-.229-2.86 1.013Z" fill="#BD1B7F"/></svg>