<svg width="32" height="32" fill="none" xmlns="http://www.w3.org/2000/svg"><circle cx="16" cy="16" r="16" fill="#BD1B7F"/><path d="M20.577 10.966a1.028 1.028 0 1 0 0 2.055 1.028 1.028 0 0 0 0-2.055Zm3.943 2.074a6.507 6.507 0 0 0-.394-2.083 4.233 4.233 0 0 0-.995-1.517 4.028 4.028 0 0 0-1.517-.986 6.257 6.257 0 0 0-2.083-.403C18.623 8 18.331 8 16 8c-2.332 0-2.623 0-3.531.051a6.257 6.257 0 0 0-2.083.403 4.097 4.097 0 0 0-1.518.986c-.439.424-.776.943-.985 1.517a6.257 6.257 0 0 0-.403 2.083c-.052.909-.052 1.2-.052 3.531 0 2.332 0 2.623.052 3.532.015.712.15 1.416.403 2.083a4.03 4.03 0 0 0 .985 1.517c.426.437.945.774 1.518.986.666.251 1.37.388 2.083.402.908.052 1.2.052 3.53.052 2.332 0 2.624 0 3.532-.052a6.257 6.257 0 0 0 2.083-.402 4.029 4.029 0 0 0 1.517-.986c.44-.427.779-.945.995-1.517a6.507 6.507 0 0 0 .394-2.083c0-.909.051-1.2.051-3.532 0-2.331 0-2.622-.051-3.531ZM22.977 20a4.806 4.806 0 0 1-.291 1.594c-.137.373-.357.71-.643.986a2.735 2.735 0 0 1-.986.643 4.811 4.811 0 0 1-1.594.291c-.857.043-1.175.052-3.429.052-2.254 0-2.571 0-3.428-.052a4.909 4.909 0 0 1-1.663-.257 2.801 2.801 0 0 1-.943-.643 2.572 2.572 0 0 1-.634-.985A4.75 4.75 0 0 1 9.023 20c0-.857-.052-1.174-.052-3.429 0-2.254 0-2.571.052-3.428a4.749 4.749 0 0 1 .3-1.629c.15-.361.382-.684.677-.943.26-.294.582-.528.943-.685a4.91 4.91 0 0 1 1.628-.292c.857 0 1.175-.051 3.429-.051 2.254 0 2.571 0 3.428.051a4.81 4.81 0 0 1 1.595.292c.39.144.739.38 1.02.685.28.264.5.586.643.943.19.522.289 1.073.291 1.629.043.857.052 1.174.052 3.428 0 2.255-.01 2.572-.052 3.429ZM16 12.174a4.397 4.397 0 1 0 4.406 4.397A4.389 4.389 0 0 0 16 12.174Zm0 7.252a2.855 2.855 0 1 1 0-5.71 2.855 2.855 0 0 1 0 5.71Z" fill="#fff"/></svg>