<svg width="16" height="16" viewBox="0 0 16 16" fill="none" xmlns="http://www.w3.org/2000/svg">
<path d="M12.9401 8.66659C12.7934 8.66659 12.6401 8.61992 12.4934 8.58659C12.1967 8.52023 11.9049 8.43335 11.6201 8.32659C11.3108 8.21407 10.9709 8.21991 10.6657 8.34299C10.3604 8.46606 10.1115 8.69768 9.96678 8.99325L9.82011 9.29992C9.17266 8.93272 8.57453 8.48468 8.04011 7.96659C7.52202 7.43217 7.07398 6.83404 6.70678 6.18659L7.01345 6.04659C7.30902 5.90186 7.54064 5.65294 7.66371 5.34771C7.78678 5.04249 7.79263 4.70253 7.68011 4.39325C7.57424 4.10594 7.48738 3.81197 7.42011 3.51325C7.38678 3.36659 7.36011 3.21325 7.34011 3.06659C7.25916 2.597 7.0132 2.17175 6.64653 1.86741C6.27986 1.56308 5.81658 1.39966 5.34011 1.40659H3.33345C3.05161 1.40622 2.77288 1.46542 2.51553 1.58031C2.25817 1.6952 2.028 1.86318 1.84011 2.07325C1.64833 2.28902 1.50552 2.54375 1.42152 2.81994C1.33751 3.09613 1.31429 3.38724 1.35345 3.67325C1.71584 6.44801 2.98359 9.02569 4.96011 11.0066C6.94101 12.9831 9.51869 14.2509 12.2934 14.6133C12.38 14.6199 12.4669 14.6199 12.5534 14.6133C13.0451 14.614 13.5197 14.4336 13.8868 14.1066C14.0968 13.9187 14.2648 13.6885 14.3797 13.4312C14.4946 13.1738 14.5538 12.8951 14.5534 12.6133V10.6133C14.5499 10.1526 14.3874 9.70733 14.0934 9.35265C13.7995 8.99797 13.3921 8.75563 12.9401 8.66659ZM13.2668 12.6666C13.2666 12.7596 13.2469 12.8516 13.209 12.9365C13.1711 13.0215 13.1158 13.0976 13.0468 13.1599C12.9737 13.2265 12.8868 13.276 12.7922 13.3048C12.6977 13.3336 12.5979 13.3411 12.5001 13.3266C10.0123 13.0017 7.70028 11.8679 5.92011 10.0999C4.13843 8.31823 2.9948 5.99816 2.66678 3.49992C2.6523 3.40214 2.65974 3.30237 2.68856 3.20782C2.71739 3.11327 2.76688 3.02632 2.83345 2.95325C2.89653 2.88335 2.9737 2.82761 3.05988 2.78969C3.14606 2.75177 3.2393 2.73254 3.33345 2.73325H5.33345C5.48756 2.72949 5.63821 2.77924 5.75976 2.87405C5.88131 2.96886 5.96625 3.10286 6.00011 3.25325C6.00011 3.43325 6.06011 3.61992 6.10011 3.79992C6.17717 4.14916 6.27966 4.4923 6.40678 4.82659L5.47345 5.26659C5.31302 5.34023 5.18835 5.47449 5.12678 5.63992C5.0601 5.80223 5.0601 5.98428 5.12678 6.14659C6.08625 8.20176 7.73828 9.85378 9.79345 10.8133C9.95575 10.8799 10.1378 10.8799 10.3001 10.8133C10.4655 10.7517 10.5998 10.627 10.6734 10.4666L11.0934 9.53325C11.4374 9.65867 11.7893 9.76111 12.1468 9.83992C12.3201 9.87992 12.5068 9.91325 12.6868 9.93992C12.8372 9.97379 12.9712 10.0587 13.066 10.1803C13.1608 10.3018 13.2105 10.4525 13.2068 10.6066L13.2668 12.6666ZM9.33345 1.33325C9.18011 1.33325 9.02011 1.33325 8.86678 1.33325C8.68997 1.34828 8.52637 1.43293 8.41197 1.56858C8.29758 1.70423 8.24175 1.87977 8.25678 2.05659C8.27181 2.2334 8.35646 2.397 8.49211 2.51139C8.62776 2.62579 8.8033 2.68161 8.98011 2.66659H9.33345C10.3943 2.66659 11.4117 3.08801 12.1619 3.83816C12.912 4.5883 13.3334 5.60572 13.3334 6.66659C13.3334 6.78659 13.3334 6.89992 13.3334 7.01992C13.3187 7.19579 13.3742 7.37035 13.488 7.50532C13.6017 7.64029 13.7643 7.72465 13.9401 7.73992H13.9934C14.1603 7.7406 14.3214 7.67865 14.4448 7.56633C14.5683 7.454 14.6451 7.29947 14.6601 7.13325C14.6601 6.97992 14.6601 6.81992 14.6601 6.66659C14.6601 5.25325 14.0991 3.89771 13.1004 2.8977C12.1016 1.8977 10.7468 1.33502 9.33345 1.33325ZM10.6668 6.66659C10.6668 6.8434 10.737 7.01297 10.862 7.13799C10.9871 7.26301 11.1566 7.33325 11.3334 7.33325C11.5103 7.33325 11.6798 7.26301 11.8049 7.13799C11.9299 7.01297 12.0001 6.8434 12.0001 6.66659C12.0001 5.95934 11.7192 5.28106 11.2191 4.78097C10.719 4.28087 10.0407 3.99992 9.33345 3.99992C9.15664 3.99992 8.98707 4.07016 8.86204 4.19518C8.73702 4.32021 8.66678 4.48977 8.66678 4.66659C8.66678 4.8434 8.73702 5.01297 8.86204 5.13799C8.98707 5.26301 9.15664 5.33325 9.33345 5.33325C9.68707 5.33325 10.0262 5.47373 10.2763 5.72378C10.5263 5.97382 10.6668 6.31296 10.6668 6.66659Z" fill="white"/>
</svg>
