<svg width="16" height="16" viewBox="0 0 16 16" fill="none" xmlns="http://www.w3.org/2000/svg">
<path d="M13.9069 2.58447H2.09473C1.68047 2.58494 1.28332 2.74972 0.990393 3.04264C0.697469 3.33556 0.532698 3.73272 0.532227 4.14697V11.8532C0.532698 12.2675 0.697469 12.6646 0.990393 12.9576C1.28332 13.2505 1.68047 13.4153 2.09473 13.4157H13.9069C14.3211 13.4153 14.7183 13.2505 15.0112 12.9576C15.3041 12.6646 15.4689 12.2675 15.4694 11.8532V4.14697C15.4689 3.73272 15.3041 3.33556 15.0112 3.04263C14.7183 2.74971 14.3211 2.58494 13.9069 2.58447ZM11.1288 7.99797L14.8444 5.08179V11.6048L11.1288 7.99797ZM2.09473 3.20947H13.9069C14.1554 3.20975 14.3937 3.30862 14.5695 3.48437C14.7452 3.66013 14.8441 3.89842 14.8444 4.14697V4.28729L8.83154 9.0066C8.6117 9.17822 8.34075 9.27134 8.06185 9.27111C7.78296 9.27088 7.51216 9.17733 7.2926 9.00535L1.15723 4.2861V4.14697C1.15751 3.89842 1.25637 3.66013 1.43212 3.48437C1.60788 3.30862 1.84617 3.20975 2.09473 3.20947ZM4.98341 8.0176L1.15723 11.6174V5.0746L4.98341 8.0176ZM13.9069 12.7907H2.09473C1.93468 12.7906 1.77731 12.7496 1.63762 12.6715C1.49792 12.5933 1.38055 12.4808 1.29666 12.3445L5.48523 8.40385L6.90966 9.49947C7.23909 9.75679 7.64513 9.89652 8.06314 9.89641C8.48115 9.8963 8.88712 9.75637 9.21641 9.49888L10.6326 8.3876L14.7065 12.342C14.6228 12.479 14.5053 12.5922 14.3653 12.6707C14.2253 12.7493 14.0674 12.7906 13.9069 12.7907Z" fill="white"/>
</svg>
