<svg width="114" height="16" viewBox="0 0 114 16" fill="none" xmlns="http://www.w3.org/2000/svg">
<path d="M106.684 0.0823774C106.167 0.116813 102.958 0.357856 99.4902 0.564465C48.952 3.6636 27.0398 6.48725 6.8245 12.4445C2.65602 13.6841 1.43868 14.2006 0.811563 14.9582L0 15.8879L0.774673 15.9912C1.21734 16.0601 3.35692 15.7158 5.53338 15.1992C19.7357 11.9279 34.7496 9.4142 50.4275 7.62359C63.7077 6.10846 71.7495 5.48864 97.0924 4.00794C105.54 3.49142 112.217 2.69942 113.25 2.07959C113.803 1.73525 114.061 1.28759 113.988 0.805508C113.877 0.0823774 113.656 0.0479431 110.741 0.0135078C109.008 -0.0209274 107.2 0.0135078 106.684 0.0823774Z" fill="#BD1B7F"/>
</svg>
